<svg width="415" height="69" viewBox="0 0 415 69" fill="none" xmlns="http://www.w3.org/2000/svg">
<path d="M22.1228 68.216C19.5788 68.216 17.3948 67.76 15.5708 66.848C13.7948 65.984 12.4508 64.832 11.5388 63.392C10.6748 61.952 10.2428 60.44 10.2428 58.856C10.2428 56.648 10.9628 54.776 12.4028 53.24C13.8908 51.704 15.9308 50.936 18.5228 50.936C19.3388 50.936 19.7468 51.152 19.7468 51.584C19.7468 51.776 19.4348 52.184 18.8108 52.808C18.1868 53.48 17.6348 54.272 17.1548 55.184C16.7228 56.096 16.5068 57.248 16.5068 58.64C16.5068 60.416 17.1068 61.88 18.3068 63.032C19.5068 64.184 21.1388 64.76 23.2028 64.76C26.0828 64.76 28.2188 63.656 29.6108 61.448C31.0508 59.288 31.7708 55.736 31.7708 50.792V44.6C28.2668 47.48 24.4268 48.92 20.2508 48.92C15.8348 48.92 12.1148 47.888 9.09084 45.824C6.06684 43.76 3.78684 40.952 2.25084 37.4C0.762844 33.848 0.0188439 29.864 0.0188439 25.448C0.0188439 21.224 0.810844 17.36 2.39484 13.856C4.02684 10.352 6.45084 7.544 9.66684 5.432C12.9308 3.32 16.8908 2.264 21.5468 2.264C24.5708 2.264 27.2828 2.696 29.6828 3.56C32.0828 4.424 33.9548 5.648 35.2988 7.232C36.6428 8.768 37.3148 10.52 37.3148 12.488C37.3148 14.744 36.6428 16.592 35.2988 18.032C34.0028 19.472 32.3468 20.192 30.3308 20.192C29.7068 20.192 29.3228 20.144 29.1788 20.048C29.0828 19.952 29.0348 19.712 29.0348 19.328C29.0348 19.184 29.2028 18.824 29.5388 18.248C29.9228 17.624 30.2348 16.928 30.4748 16.16C30.7148 15.392 30.8348 14.48 30.8348 13.424C30.8348 11.168 29.9708 9.344 28.2428 7.952C26.5628 6.56 24.3308 5.864 21.5468 5.864C18.1388 5.864 15.3548 6.848 13.1948 8.816C11.0348 10.784 9.47484 13.232 8.51484 16.16C7.55484 19.088 7.07484 22.088 7.07484 25.16C7.07484 28.76 7.62684 32.048 8.73084 35.024C9.83484 38 11.4188 40.352 13.4828 42.08C15.5948 43.808 18.0188 44.672 20.7548 44.672C25.1708 44.672 28.8428 43.208 31.7708 40.28V36.968C31.7708 35 31.4588 33.632 30.8348 32.864C30.2588 32.048 29.1308 31.4 27.4508 30.92L26.0828 30.488L26.8028 28.184H40.5548L41.3468 29.336L40.5548 30.488C39.4508 31.928 38.6588 33.464 38.1788 35.096C37.7468 36.728 37.5308 38.84 37.5308 41.432V48.92C37.5308 61.784 32.3948 68.216 22.1228 68.216ZM66.5468 50.936C61.8428 50.936 57.8828 49.88 54.6668 47.768C51.4508 45.608 49.0268 42.704 47.3948 39.056C45.8108 35.408 45.0188 31.28 45.0188 26.672C45.0188 22.064 45.8108 17.912 47.3948 14.216C49.0268 10.52 51.4508 7.616 54.6668 5.504C57.8828 3.344 61.8428 2.264 66.5468 2.264C71.2508 2.264 75.2108 3.344 78.4268 5.504C81.6908 7.616 84.1388 10.52 85.7708 14.216C87.4028 17.912 88.2188 22.064 88.2188 26.672C88.2188 31.28 87.4028 35.408 85.7708 39.056C84.1388 42.704 81.6908 45.608 78.4268 47.768C75.2108 49.88 71.2508 50.936 66.5468 50.936ZM66.2588 47.12C69.3308 47.12 71.9708 46.232 74.1788 44.456C76.4348 42.632 78.1628 40.184 79.3628 37.112C80.5628 34.04 81.1628 30.632 81.1628 26.888C81.1628 23.72 80.7068 20.552 79.7948 17.384C78.8828 14.168 77.3708 11.456 75.2588 9.248C73.1468 7.04 70.3868 5.936 66.9788 5.936C63.9068 5.936 61.2428 6.896 58.9868 8.816C56.7308 10.688 55.0028 13.256 53.8028 16.52C52.6508 19.736 52.0748 23.312 52.0748 27.248C52.0748 33.008 53.2988 37.76 55.7468 41.504C58.2428 45.248 61.7468 47.12 66.2588 47.12ZM122.929 50.936C122.689 50.6 122.353 50.36 121.921 50.216C121.489 50.072 120.889 50 120.121 50H94.129L93.337 47.912L94.777 47.552C96.361 47.072 97.417 46.472 97.945 45.752C98.473 44.984 98.737 43.664 98.737 41.792V11.84C98.737 9.824 98.449 8.432 97.873 7.664C97.345 6.848 96.265 6.224 94.633 5.792L93.049 5.432L93.841 3.2H108.169L109.033 4.208L108.169 5.432C107.065 6.824 106.297 8.336 105.865 9.968C105.433 11.552 105.217 13.64 105.217 16.232V41.36C105.217 42.752 105.313 43.808 105.505 44.528C105.745 45.2 106.153 45.656 106.729 45.896C107.305 46.136 108.193 46.256 109.393 46.256H115.081C117.337 46.256 118.921 45.872 119.833 45.104C120.793 44.336 121.561 42.8 122.137 40.496L122.497 39.056L124.801 39.704V50.936L123.433 51.584L122.929 50.936ZM128.838 47.768L130.422 47.408C131.766 46.976 132.774 46.4 133.446 45.68C134.166 44.912 134.526 43.712 134.526 42.08V9.104C134.526 8.528 134.406 8.144 134.166 7.952C133.926 7.712 133.566 7.592 133.086 7.592H129.342L128.55 5.144C130.614 4.424 133.302 3.776 136.614 3.2C139.926 2.576 143.118 2.264 146.19 2.264C155.262 2.264 161.79 4.52 165.774 9.032C169.758 13.544 171.75 19.424 171.75 26.672C171.75 31.088 170.934 35.072 169.302 38.624C167.67 42.128 165.222 44.912 161.958 46.976C158.742 48.992 154.782 50 150.078 50H129.63L128.838 47.768ZM148.062 46.688C159.15 46.688 164.694 39.968 164.694 26.528C164.694 22.832 164.046 19.424 162.75 16.304C161.502 13.184 159.582 10.664 156.99 8.744C154.398 6.824 151.206 5.864 147.414 5.864C143.142 5.864 141.006 6.896 141.006 8.96V38.552C141.006 41.672 141.654 43.808 142.95 44.96C144.246 46.112 145.95 46.688 148.062 46.688ZM207.9 50.936C207.564 50.6 207.18 50.36 206.748 50.216C206.364 50.072 205.836 50 205.164 50H177.66L176.868 47.912L178.308 47.552C179.892 47.072 180.948 46.472 181.476 45.752C182.004 44.984 182.268 43.664 182.268 41.792V16.232C182.268 13.64 182.052 11.552 181.62 9.968C181.188 8.384 180.444 6.872 179.388 5.432L178.524 4.208L179.388 3.2H199.332C203.124 3.2 205.572 2.744 206.676 1.832L207.972 0.967996L208.908 1.832V13.424L206.676 14.216L206.316 12.632C205.74 10.28 204.996 8.72 204.084 7.952C203.172 7.184 201.588 6.8 199.332 6.8H192.924C191.244 6.8 190.116 7.136 189.54 7.808C189.012 8.48 188.748 9.824 188.748 11.84V24.368H197.028C198.132 24.368 199.068 24.152 199.836 23.72C200.604 23.288 201.396 22.52 202.212 21.416L202.716 20.696L204.012 21.416V32.576L201.852 33.368L201.42 31.712C200.94 30.224 200.22 29.24 199.26 28.76C198.3 28.28 196.62 28.04 194.22 28.04H188.748V41.36C188.748 42.752 188.844 43.808 189.036 44.528C189.276 45.2 189.684 45.656 190.26 45.896C190.836 46.136 191.724 46.256 192.924 46.256H199.908C201.492 46.256 202.716 46.112 203.58 45.824C204.444 45.488 205.116 44.912 205.596 44.096C206.124 43.28 206.604 42.08 207.036 40.496L207.468 39.056L209.628 39.704V50.936L208.404 51.584L207.9 50.936ZM215.877 47.768L217.389 47.408C219.069 46.88 220.173 46.256 220.701 45.536C221.229 44.768 221.493 43.376 221.493 41.36V11.84C221.493 9.824 221.205 8.432 220.629 7.664C220.101 6.848 219.021 6.224 217.389 5.792L215.877 5.432L216.669 3.2H227.181L252.093 40.136V11.84C252.093 9.872 251.805 8.48 251.229 7.664C250.653 6.848 249.549 6.224 247.917 5.792L246.333 5.432L247.269 3.2H259.509L260.445 4.208L259.509 5.432C258.453 6.824 257.709 8.336 257.277 9.968C256.845 11.552 256.629 13.64 256.629 16.232V44.24C256.629 45.584 256.941 46.76 257.565 47.768L258.357 48.92L257.565 50H251.013L226.173 13.064V36.896C226.173 39.584 226.365 41.72 226.749 43.304C227.181 44.888 227.949 46.376 229.053 47.768L229.917 48.92L229.053 50H216.669L215.877 47.768ZM320.541 50.936C320.205 50.6 319.821 50.36 319.389 50.216C319.005 50.072 318.477 50 317.805 50H290.301L289.509 47.912L290.949 47.552C292.533 47.072 293.589 46.472 294.117 45.752C294.645 44.984 294.909 43.664 294.909 41.792V16.232C294.909 13.64 294.693 11.552 294.261 9.968C293.829 8.384 293.085 6.872 292.029 5.432L291.165 4.208L292.029 3.2H311.973C315.765 3.2 318.213 2.744 319.317 1.832L320.613 0.967996L321.549 1.832V13.424L319.317 14.216L318.957 12.632C318.381 10.28 317.637 8.72 316.725 7.952C315.813 7.184 314.229 6.8 311.973 6.8H305.565C303.885 6.8 302.757 7.136 302.181 7.808C301.653 8.48 301.389 9.824 301.389 11.84V24.368H309.669C310.773 24.368 311.709 24.152 312.477 23.72C313.245 23.288 314.037 22.52 314.853 21.416L315.357 20.696L316.653 21.416V32.576L314.493 33.368L314.061 31.712C313.581 30.224 312.861 29.24 311.901 28.76C310.941 28.28 309.261 28.04 306.861 28.04H301.389V41.36C301.389 42.752 301.485 43.808 301.677 44.528C301.917 45.2 302.325 45.656 302.901 45.896C303.477 46.136 304.365 46.256 305.565 46.256H312.549C314.133 46.256 315.357 46.112 316.221 45.824C317.085 45.488 317.757 44.912 318.237 44.096C318.765 43.28 319.245 42.08 319.677 40.496L320.109 39.056L322.269 39.704V50.936L321.045 51.584L320.541 50.936ZM350.693 68.216C348.149 68.216 345.965 67.76 344.141 66.848C342.365 65.984 341.021 64.832 340.109 63.392C339.245 61.952 338.813 60.44 338.813 58.856C338.813 56.648 339.533 54.776 340.973 53.24C342.461 51.704 344.501 50.936 347.093 50.936C347.909 50.936 348.317 51.152 348.317 51.584C348.317 51.776 348.005 52.184 347.381 52.808C346.757 53.48 346.205 54.272 345.725 55.184C345.293 56.096 345.077 57.248 345.077 58.64C345.077 60.416 345.677 61.88 346.877 63.032C348.077 64.184 349.709 64.76 351.773 64.76C354.653 64.76 356.789 63.656 358.181 61.448C359.621 59.288 360.341 55.736 360.341 50.792V44.6C356.837 47.48 352.997 48.92 348.821 48.92C344.405 48.92 340.685 47.888 337.661 45.824C334.637 43.76 332.357 40.952 330.821 37.4C329.333 33.848 328.589 29.864 328.589 25.448C328.589 21.224 329.381 17.36 330.965 13.856C332.597 10.352 335.021 7.544 338.237 5.432C341.501 3.32 345.461 2.264 350.117 2.264C353.141 2.264 355.853 2.696 358.253 3.56C360.653 4.424 362.525 5.648 363.869 7.232C365.213 8.768 365.885 10.52 365.885 12.488C365.885 14.744 365.213 16.592 363.869 18.032C362.573 19.472 360.917 20.192 358.901 20.192C358.277 20.192 357.893 20.144 357.749 20.048C357.653 19.952 357.605 19.712 357.605 19.328C357.605 19.184 357.773 18.824 358.109 18.248C358.493 17.624 358.805 16.928 359.045 16.16C359.285 15.392 359.405 14.48 359.405 13.424C359.405 11.168 358.541 9.344 356.813 7.952C355.133 6.56 352.901 5.864 350.117 5.864C346.709 5.864 343.925 6.848 341.765 8.816C339.605 10.784 338.045 13.232 337.085 16.16C336.125 19.088 335.645 22.088 335.645 25.16C335.645 28.76 336.197 32.048 337.301 35.024C338.405 38 339.989 40.352 342.053 42.08C344.165 43.808 346.589 44.672 349.325 44.672C353.741 44.672 357.413 43.208 360.341 40.28V36.968C360.341 35 360.029 33.632 359.405 32.864C358.829 32.048 357.701 31.4 356.021 30.92L354.653 30.488L355.373 28.184H369.125L369.917 29.336L369.125 30.488C368.021 31.928 367.229 33.464 366.749 35.096C366.317 36.728 366.101 38.84 366.101 41.432V48.92C366.101 61.784 360.965 68.216 350.693 68.216ZM395.693 68.216C393.149 68.216 390.965 67.76 389.141 66.848C387.365 65.984 386.021 64.832 385.109 63.392C384.245 61.952 383.813 60.44 383.813 58.856C383.813 56.648 384.533 54.776 385.973 53.24C387.461 51.704 389.501 50.936 392.093 50.936C392.909 50.936 393.317 51.152 393.317 51.584C393.317 51.776 393.005 52.184 392.381 52.808C391.757 53.48 391.205 54.272 390.725 55.184C390.293 56.096 390.077 57.248 390.077 58.64C390.077 60.416 390.677 61.88 391.877 63.032C393.077 64.184 394.709 64.76 396.773 64.76C399.653 64.76 401.789 63.656 403.181 61.448C404.621 59.288 405.341 55.736 405.341 50.792V44.6C401.837 47.48 397.997 48.92 393.821 48.92C389.405 48.92 385.685 47.888 382.661 45.824C379.637 43.76 377.357 40.952 375.821 37.4C374.333 33.848 373.589 29.864 373.589 25.448C373.589 21.224 374.381 17.36 375.965 13.856C377.597 10.352 380.021 7.544 383.237 5.432C386.501 3.32 390.461 2.264 395.117 2.264C398.141 2.264 400.853 2.696 403.253 3.56C405.653 4.424 407.525 5.648 408.869 7.232C410.213 8.768 410.885 10.52 410.885 12.488C410.885 14.744 410.213 16.592 408.869 18.032C407.573 19.472 405.917 20.192 403.901 20.192C403.277 20.192 402.893 20.144 402.749 20.048C402.653 19.952 402.605 19.712 402.605 19.328C402.605 19.184 402.773 18.824 403.109 18.248C403.493 17.624 403.805 16.928 404.045 16.16C404.285 15.392 404.405 14.48 404.405 13.424C404.405 11.168 403.541 9.344 401.813 7.952C400.133 6.56 397.901 5.864 395.117 5.864C391.709 5.864 388.925 6.848 386.765 8.816C384.605 10.784 383.045 13.232 382.085 16.16C381.125 19.088 380.645 22.088 380.645 25.16C380.645 28.76 381.197 32.048 382.301 35.024C383.405 38 384.989 40.352 387.053 42.08C389.165 43.808 391.589 44.672 394.325 44.672C398.741 44.672 402.413 43.208 405.341 40.28V36.968C405.341 35 405.029 33.632 404.405 32.864C403.829 32.048 402.701 31.4 401.021 30.92L399.653 30.488L400.373 28.184H414.125L414.917 29.336L414.125 30.488C413.021 31.928 412.229 33.464 411.749 35.096C411.317 36.728 411.101 38.84 411.101 41.432V48.92C411.101 61.784 405.965 68.216 395.693 68.216Z" fill="#E8C300"/>
</svg>
