<svg width="243" height="40" viewBox="0 0 243 40" fill="none" xmlns="http://www.w3.org/2000/svg">
<path d="M13.655 39.626C12.171 39.626 10.897 39.36 9.83299 38.828C8.79699 38.324 8.01299 37.652 7.48099 36.812C6.97699 35.972 6.72499 35.09 6.72499 34.166C6.72499 32.878 7.14499 31.786 7.98499 30.89C8.85299 29.994 10.043 29.546 11.555 29.546C12.031 29.546 12.269 29.672 12.269 29.924C12.269 30.036 12.087 30.274 11.723 30.638C11.359 31.03 11.037 31.492 10.757 32.024C10.505 32.556 10.379 33.228 10.379 34.04C10.379 35.076 10.729 35.93 11.429 36.602C12.129 37.274 13.081 37.61 14.285 37.61C15.965 37.61 17.211 36.966 18.023 35.678C18.863 34.418 19.283 32.346 19.283 29.462V25.85C17.239 27.53 14.999 28.37 12.563 28.37C9.98699 28.37 7.81699 27.768 6.05299 26.564C4.28899 25.36 2.95899 23.722 2.06299 21.65C1.19499 19.578 0.760992 17.254 0.760992 14.678C0.760992 12.214 1.22299 9.96 2.14699 7.916C3.09899 5.872 4.51299 4.234 6.38899 3.002C8.29299 1.77 10.603 1.154 13.319 1.154C15.083 1.154 16.665 1.406 18.065 1.91C19.465 2.414 20.557 3.128 21.341 4.052C22.125 4.948 22.517 5.97 22.517 7.118C22.517 8.434 22.125 9.512 21.341 10.352C20.585 11.192 19.619 11.612 18.443 11.612C18.079 11.612 17.855 11.584 17.771 11.528C17.715 11.472 17.687 11.332 17.687 11.108C17.687 11.024 17.785 10.814 17.981 10.478C18.205 10.114 18.387 9.708 18.527 9.26C18.667 8.812 18.737 8.28 18.737 7.664C18.737 6.348 18.233 5.284 17.225 4.472C16.245 3.66 14.943 3.254 13.319 3.254C11.331 3.254 9.70699 3.828 8.44699 4.976C7.18699 6.124 6.27699 7.552 5.71699 9.26C5.15699 10.968 4.87699 12.718 4.87699 14.51C4.87699 16.61 5.19899 18.528 5.84299 20.264C6.48699 22 7.41099 23.372 8.61499 24.38C9.84699 25.388 11.261 25.892 12.857 25.892C15.433 25.892 17.575 25.038 19.283 23.33V21.398C19.283 20.25 19.101 19.452 18.737 19.004C18.401 18.528 17.743 18.15 16.763 17.87L15.965 17.618L16.385 16.274H24.407L24.869 16.946L24.407 17.618C23.763 18.458 23.301 19.354 23.021 20.306C22.769 21.258 22.643 22.49 22.643 24.002V28.37C22.643 35.874 19.647 39.626 13.655 39.626ZM39.569 29.546C36.825 29.546 34.515 28.93 32.639 27.698C30.763 26.438 29.349 24.744 28.397 22.616C27.473 20.488 27.011 18.08 27.011 15.392C27.011 12.704 27.473 10.282 28.397 8.126C29.349 5.97 30.763 4.276 32.639 3.044C34.515 1.784 36.825 1.154 39.569 1.154C42.313 1.154 44.623 1.784 46.499 3.044C48.403 4.276 49.831 5.97 50.783 8.126C51.735 10.282 52.211 12.704 52.211 15.392C52.211 18.08 51.735 20.488 50.783 22.616C49.831 24.744 48.403 26.438 46.499 27.698C44.623 28.93 42.313 29.546 39.569 29.546ZM39.401 27.32C41.193 27.32 42.733 26.802 44.021 25.766C45.337 24.702 46.345 23.274 47.045 21.482C47.745 19.69 48.095 17.702 48.095 15.518C48.095 13.67 47.829 11.822 47.297 9.974C46.765 8.098 45.883 6.516 44.651 5.228C43.419 3.94 41.809 3.296 39.821 3.296C38.029 3.296 36.475 3.856 35.159 4.976C33.843 6.068 32.835 7.566 32.135 9.47C31.463 11.346 31.127 13.432 31.127 15.728C31.127 19.088 31.841 21.86 33.269 24.044C34.725 26.228 36.769 27.32 39.401 27.32ZM72.4586 29.546C72.3186 29.35 72.1226 29.21 71.8706 29.126C71.6186 29.042 71.2686 29 70.8206 29H55.6586L55.1966 27.782L56.0366 27.572C56.9606 27.292 57.5766 26.942 57.8846 26.522C58.1926 26.074 58.3466 25.304 58.3466 24.212V6.74C58.3466 5.564 58.1786 4.752 57.8426 4.304C57.5346 3.828 56.9046 3.464 55.9526 3.212L55.0286 3.002L55.4906 1.7H63.8486L64.3526 2.288L63.8486 3.002C63.2046 3.814 62.7566 4.696 62.5046 5.648C62.2526 6.572 62.1266 7.79 62.1266 9.302V23.96C62.1266 24.772 62.1826 25.388 62.2946 25.808C62.4346 26.2 62.6726 26.466 63.0086 26.606C63.3446 26.746 63.8626 26.816 64.5626 26.816H67.8806C69.1966 26.816 70.1206 26.592 70.6526 26.144C71.2126 25.696 71.6606 24.8 71.9966 23.456L72.2066 22.616L73.5506 22.994V29.546L72.7526 29.924L72.4586 29.546ZM75.9056 27.698L76.8296 27.488C77.6136 27.236 78.2016 26.9 78.5936 26.48C79.0136 26.032 79.2236 25.332 79.2236 24.38V5.144C79.2236 4.808 79.1536 4.584 79.0136 4.472C78.8736 4.332 78.6636 4.262 78.3836 4.262H76.1996L75.7376 2.834C76.9416 2.414 78.5096 2.036 80.4416 1.7C82.3736 1.336 84.2356 1.154 86.0276 1.154C91.3196 1.154 95.1276 2.47 97.4516 5.102C99.7756 7.734 100.938 11.164 100.938 15.392C100.938 17.968 100.462 20.292 99.5096 22.364C98.5576 24.408 97.1296 26.032 95.2256 27.236C93.3496 28.412 91.0396 29 88.2956 29H76.3676L75.9056 27.698ZM87.1196 27.068C93.5876 27.068 96.8216 23.148 96.8216 15.308C96.8216 13.152 96.4436 11.164 95.6876 9.344C94.9596 7.524 93.8396 6.054 92.3276 4.934C90.8156 3.814 88.9536 3.254 86.7416 3.254C84.2496 3.254 83.0036 3.856 83.0036 5.06V22.322C83.0036 24.142 83.3816 25.388 84.1376 26.06C84.8936 26.732 85.8876 27.068 87.1196 27.068ZM122.025 29.546C121.829 29.35 121.605 29.21 121.353 29.126C121.129 29.042 120.821 29 120.429 29H104.385L103.923 27.782L104.763 27.572C105.687 27.292 106.303 26.942 106.611 26.522C106.919 26.074 107.073 25.304 107.073 24.212V9.302C107.073 7.79 106.947 6.572 106.695 5.648C106.443 4.724 106.009 3.842 105.393 3.002L104.889 2.288L105.393 1.7H117.027C119.239 1.7 120.667 1.434 121.311 0.901999L122.067 0.397998L122.613 0.901999V7.664L121.311 8.126L121.101 7.202C120.765 5.83 120.331 4.92 119.799 4.472C119.267 4.024 118.343 3.8 117.027 3.8H113.289C112.309 3.8 111.651 3.996 111.315 4.388C111.007 4.78 110.853 5.564 110.853 6.74V14.048H115.683C116.327 14.048 116.873 13.922 117.321 13.67C117.769 13.418 118.231 12.97 118.707 12.326L119.001 11.906L119.757 12.326V18.836L118.497 19.298L118.245 18.332C117.965 17.464 117.545 16.89 116.985 16.61C116.425 16.33 115.445 16.19 114.045 16.19H110.853V23.96C110.853 24.772 110.909 25.388 111.021 25.808C111.161 26.2 111.399 26.466 111.735 26.606C112.071 26.746 112.589 26.816 113.289 26.816H117.363C118.287 26.816 119.001 26.732 119.505 26.564C120.009 26.368 120.401 26.032 120.681 25.556C120.989 25.08 121.269 24.38 121.521 23.456L121.773 22.616L123.033 22.994V29.546L122.319 29.924L122.025 29.546ZM126.678 27.698L127.56 27.488C128.54 27.18 129.184 26.816 129.492 26.396C129.8 25.948 129.954 25.136 129.954 23.96V6.74C129.954 5.564 129.786 4.752 129.45 4.304C129.142 3.828 128.512 3.464 127.56 3.212L126.678 3.002L127.14 1.7H133.272L147.804 23.246V6.74C147.804 5.592 147.636 4.78 147.3 4.304C146.964 3.828 146.32 3.464 145.368 3.212L144.444 3.002L144.99 1.7H152.13L152.676 2.288L152.13 3.002C151.514 3.814 151.08 4.696 150.828 5.648C150.576 6.572 150.45 7.79 150.45 9.302V25.64C150.45 26.424 150.632 27.11 150.996 27.698L151.458 28.37L150.996 29H147.174L132.684 7.454V21.356C132.684 22.924 132.796 24.17 133.02 25.094C133.272 26.018 133.72 26.886 134.364 27.698L134.868 28.37L134.364 29H127.14L126.678 27.698ZM187.732 29.546C187.536 29.35 187.312 29.21 187.06 29.126C186.836 29.042 186.528 29 186.136 29H170.092L169.63 27.782L170.47 27.572C171.394 27.292 172.01 26.942 172.318 26.522C172.626 26.074 172.78 25.304 172.78 24.212V9.302C172.78 7.79 172.654 6.572 172.402 5.648C172.15 4.724 171.716 3.842 171.1 3.002L170.596 2.288L171.1 1.7H182.734C184.946 1.7 186.374 1.434 187.018 0.901999L187.774 0.397998L188.32 0.901999V7.664L187.018 8.126L186.808 7.202C186.472 5.83 186.038 4.92 185.506 4.472C184.974 4.024 184.05 3.8 182.734 3.8H178.996C178.016 3.8 177.358 3.996 177.022 4.388C176.714 4.78 176.56 5.564 176.56 6.74V14.048H181.39C182.034 14.048 182.58 13.922 183.028 13.67C183.476 13.418 183.938 12.97 184.414 12.326L184.708 11.906L185.464 12.326V18.836L184.204 19.298L183.952 18.332C183.672 17.464 183.252 16.89 182.692 16.61C182.132 16.33 181.152 16.19 179.752 16.19H176.56V23.96C176.56 24.772 176.616 25.388 176.728 25.808C176.868 26.2 177.106 26.466 177.442 26.606C177.778 26.746 178.296 26.816 178.996 26.816H183.07C183.994 26.816 184.708 26.732 185.212 26.564C185.716 26.368 186.108 26.032 186.388 25.556C186.696 25.08 186.976 24.38 187.228 23.456L187.48 22.616L188.74 22.994V29.546L188.026 29.924L187.732 29.546ZM205.321 39.626C203.837 39.626 202.563 39.36 201.499 38.828C200.463 38.324 199.679 37.652 199.147 36.812C198.643 35.972 198.391 35.09 198.391 34.166C198.391 32.878 198.811 31.786 199.651 30.89C200.519 29.994 201.709 29.546 203.221 29.546C203.697 29.546 203.935 29.672 203.935 29.924C203.935 30.036 203.753 30.274 203.389 30.638C203.025 31.03 202.703 31.492 202.423 32.024C202.171 32.556 202.045 33.228 202.045 34.04C202.045 35.076 202.395 35.93 203.095 36.602C203.795 37.274 204.747 37.61 205.951 37.61C207.631 37.61 208.877 36.966 209.689 35.678C210.529 34.418 210.949 32.346 210.949 29.462V25.85C208.905 27.53 206.665 28.37 204.229 28.37C201.653 28.37 199.483 27.768 197.719 26.564C195.955 25.36 194.625 23.722 193.729 21.65C192.861 19.578 192.427 17.254 192.427 14.678C192.427 12.214 192.889 9.96 193.813 7.916C194.765 5.872 196.179 4.234 198.055 3.002C199.959 1.77 202.269 1.154 204.985 1.154C206.749 1.154 208.331 1.406 209.731 1.91C211.131 2.414 212.223 3.128 213.007 4.052C213.791 4.948 214.183 5.97 214.183 7.118C214.183 8.434 213.791 9.512 213.007 10.352C212.251 11.192 211.285 11.612 210.109 11.612C209.745 11.612 209.521 11.584 209.437 11.528C209.381 11.472 209.353 11.332 209.353 11.108C209.353 11.024 209.451 10.814 209.647 10.478C209.871 10.114 210.053 9.708 210.193 9.26C210.333 8.812 210.403 8.28 210.403 7.664C210.403 6.348 209.899 5.284 208.891 4.472C207.911 3.66 206.609 3.254 204.985 3.254C202.997 3.254 201.373 3.828 200.113 4.976C198.853 6.124 197.943 7.552 197.383 9.26C196.823 10.968 196.543 12.718 196.543 14.51C196.543 16.61 196.865 18.528 197.509 20.264C198.153 22 199.077 23.372 200.281 24.38C201.513 25.388 202.927 25.892 204.523 25.892C207.099 25.892 209.241 25.038 210.949 23.33V21.398C210.949 20.25 210.767 19.452 210.403 19.004C210.067 18.528 209.409 18.15 208.429 17.87L207.631 17.618L208.051 16.274H216.073L216.535 16.946L216.073 17.618C215.429 18.458 214.967 19.354 214.687 20.306C214.435 21.258 214.309 22.49 214.309 24.002V28.37C214.309 35.874 211.313 39.626 205.321 39.626ZM231.571 39.626C230.087 39.626 228.813 39.36 227.749 38.828C226.713 38.324 225.929 37.652 225.397 36.812C224.893 35.972 224.641 35.09 224.641 34.166C224.641 32.878 225.061 31.786 225.901 30.89C226.769 29.994 227.959 29.546 229.471 29.546C229.947 29.546 230.185 29.672 230.185 29.924C230.185 30.036 230.003 30.274 229.639 30.638C229.275 31.03 228.953 31.492 228.673 32.024C228.421 32.556 228.295 33.228 228.295 34.04C228.295 35.076 228.645 35.93 229.345 36.602C230.045 37.274 230.997 37.61 232.201 37.61C233.881 37.61 235.127 36.966 235.939 35.678C236.779 34.418 237.199 32.346 237.199 29.462V25.85C235.155 27.53 232.915 28.37 230.479 28.37C227.903 28.37 225.733 27.768 223.969 26.564C222.205 25.36 220.875 23.722 219.979 21.65C219.111 19.578 218.677 17.254 218.677 14.678C218.677 12.214 219.139 9.96 220.063 7.916C221.015 5.872 222.429 4.234 224.305 3.002C226.209 1.77 228.519 1.154 231.235 1.154C232.999 1.154 234.581 1.406 235.981 1.91C237.381 2.414 238.473 3.128 239.257 4.052C240.041 4.948 240.433 5.97 240.433 7.118C240.433 8.434 240.041 9.512 239.257 10.352C238.501 11.192 237.535 11.612 236.359 11.612C235.995 11.612 235.771 11.584 235.687 11.528C235.631 11.472 235.603 11.332 235.603 11.108C235.603 11.024 235.701 10.814 235.897 10.478C236.121 10.114 236.303 9.708 236.443 9.26C236.583 8.812 236.653 8.28 236.653 7.664C236.653 6.348 236.149 5.284 235.141 4.472C234.161 3.66 232.859 3.254 231.235 3.254C229.247 3.254 227.623 3.828 226.363 4.976C225.103 6.124 224.193 7.552 223.633 9.26C223.073 10.968 222.793 12.718 222.793 14.51C222.793 16.61 223.115 18.528 223.759 20.264C224.403 22 225.327 23.372 226.531 24.38C227.763 25.388 229.177 25.892 230.773 25.892C233.349 25.892 235.491 25.038 237.199 23.33V21.398C237.199 20.25 237.017 19.452 236.653 19.004C236.317 18.528 235.659 18.15 234.679 17.87L233.881 17.618L234.301 16.274H242.323L242.785 16.946L242.323 17.618C241.679 18.458 241.217 19.354 240.937 20.306C240.685 21.258 240.559 22.49 240.559 24.002V28.37C240.559 35.874 237.563 39.626 231.571 39.626Z" fill="white"/>
</svg>
