<svg width="12" height="163" viewBox="0 0 12 163" fill="none" xmlns="http://www.w3.org/2000/svg">
<path d="M10 155.664V157.475H2.94531V160.627H10V162.443H1.43359L1.43359 155.664H10ZM3.44922 151.855H5.96875L5.96875 149.359H3.44922V147.572H10V149.359H7.29883L7.29883 151.855H10V153.643H3.44922V151.855ZM7.51562 143.16H6.05078V140.014H7.51562V143.16ZM10 128.676V130.486H2.94531V133.639H10V135.455H1.43359V128.676H10ZM3.44922 121.234H4.79102V123.379H10V125.166H4.79102L4.79102 127.316H3.44922L3.44922 121.234ZM9.16211 120.262C8.83398 120.262 8.58594 120.174 8.41797 119.998C8.25 119.822 8.16602 119.566 8.16602 119.23C8.16602 118.906 8.25195 118.656 8.42383 118.48C8.5957 118.301 8.8418 118.211 9.16211 118.211C9.4707 118.211 9.71484 118.301 9.89453 118.48C10.0703 118.66 10.1582 118.91 10.1582 119.23C10.1582 119.559 10.0723 119.812 9.90039 119.992C9.72461 120.172 9.47852 120.262 9.16211 120.262ZM4.32227 120.262C3.99414 120.262 3.74609 120.174 3.57812 119.998C3.41016 119.822 3.32617 119.566 3.32617 119.23C3.32617 118.906 3.41211 118.656 3.58398 118.48C3.75586 118.301 4.00195 118.211 4.32227 118.211C4.63867 118.211 4.88477 118.303 5.06055 118.486C5.23242 118.666 5.31836 118.914 5.31836 119.23C5.31836 119.559 5.23242 119.812 5.06055 119.992C4.88867 120.172 4.64258 120.262 4.32227 120.262ZM1.32227 110.975C1.32227 110.154 1.50977 109.494 1.88477 108.994C2.25586 108.49 2.75781 108.238 3.39062 108.238C3.82812 108.238 4.21875 108.359 4.5625 108.602C4.90234 108.844 5.20703 109.234 5.47656 109.773C5.82031 109.133 6.17969 108.674 6.55469 108.396C6.92578 108.115 7.33398 107.975 7.7793 107.975C8.48242 107.975 9.04883 108.25 9.47852 108.801C9.9043 109.352 10.1172 110.076 10.1172 110.975C10.1172 111.912 9.91797 112.648 9.51953 113.184C9.12109 113.719 8.55664 113.986 7.82617 113.986C7.33789 113.986 6.9043 113.857 6.52539 113.6C6.14648 113.338 5.8125 112.92 5.52344 112.346C5.21484 112.834 4.88477 113.186 4.5332 113.4C4.18164 113.615 3.79687 113.723 3.37891 113.723C2.76562 113.723 2.26953 113.469 1.89062 112.961C1.51172 112.453 1.32227 111.791 1.32227 110.975ZM7.7207 112.311C8.05664 112.311 8.31836 112.193 8.50586 111.959C8.69336 111.725 8.78711 111.404 8.78711 110.998C8.78711 110.549 8.69141 110.213 8.5 109.99C8.30469 109.768 8.04883 109.656 7.73242 109.656C7.4707 109.656 7.22656 109.768 7 109.99C6.76953 110.209 6.52539 110.566 6.26758 111.062C6.65039 111.895 7.13477 112.311 7.7207 112.311ZM2.64648 110.986C2.64648 111.295 2.72656 111.545 2.88672 111.736C3.04297 111.924 3.25391 112.018 3.51953 112.018C3.75391 112.018 3.96484 111.943 4.15234 111.795C4.33594 111.643 4.52539 111.369 4.7207 110.975C4.54102 110.592 4.35742 110.324 4.16992 110.172C3.98242 110.02 3.76562 109.943 3.51953 109.943C3.25 109.943 3.03711 110.041 2.88086 110.236C2.72461 110.432 2.64648 110.682 2.64648 110.986ZM7.51562 104.078H6.05078V100.932H7.51562V104.078ZM10 90.9824V96.9707H8.74023L6.56641 94.8203C5.91406 94.1836 5.46289 93.7676 5.21289 93.5723C4.95898 93.377 4.72461 93.2363 4.50977 93.1504C4.29492 93.0645 4.07227 93.0215 3.8418 93.0215C3.49805 93.0215 3.24219 93.1172 3.07422 93.3086C2.90625 93.4961 2.82227 93.748 2.82227 94.0645C2.82227 94.3965 2.89844 94.7188 3.05078 95.0312C3.20312 95.3438 3.41992 95.6699 3.70117 96.0098L2.53516 96.9941C2.17578 96.5723 1.92187 96.2227 1.77344 95.9453C1.625 95.668 1.51172 95.3652 1.43359 95.0371C1.35156 94.709 1.31055 94.3418 1.31055 93.9355C1.31055 93.4004 1.4082 92.9277 1.60352 92.5176C1.79883 92.1074 2.07227 91.7891 2.42383 91.5625C2.77539 91.3359 3.17773 91.2227 3.63086 91.2227C4.02539 91.2227 4.39648 91.293 4.74414 91.4336C5.08789 91.5703 5.44141 91.7852 5.80469 92.0781C6.16797 92.3672 6.68555 92.8789 7.35742 93.6133L8.39453 94.7148H8.47656V90.9824H10ZM10 84.127V90.1152H8.74023L6.56641 87.9648C5.91406 87.3281 5.46289 86.9121 5.21289 86.7168C4.95898 86.5215 4.72461 86.3809 4.50977 86.2949C4.29492 86.209 4.07227 86.166 3.8418 86.166C3.49805 86.166 3.24219 86.2617 3.07422 86.4531C2.90625 86.6406 2.82227 86.8926 2.82227 87.209C2.82227 87.541 2.89844 87.8633 3.05078 88.1758C3.20312 88.4883 3.41992 88.8145 3.70117 89.1543L2.53516 90.1387C2.17578 89.7168 1.92187 89.3672 1.77344 89.0898C1.625 88.8125 1.51172 88.5098 1.43359 88.1816C1.35156 87.8535 1.31055 87.4863 1.31055 87.0801C1.31055 86.5449 1.4082 86.0723 1.60352 85.6621C1.79883 85.252 2.07227 84.9336 2.42383 84.707C2.77539 84.4805 3.17773 84.3672 3.63086 84.3672C4.02539 84.3672 4.39648 84.4375 4.74414 84.5781C5.08789 84.7148 5.44141 84.9297 5.80469 85.2227C6.16797 85.5117 6.68555 86.0234 7.35742 86.7578L8.39453 87.8594H8.47656V84.127H10ZM8.74023 81.0508C9.5293 81.2539 10.4648 81.5977 11.5469 82.082V83.3711C10.5078 83.1172 9.52734 82.9199 8.60547 82.7793V81.1387L8.74023 81.0508ZM2.82227 72.4258C2.82227 73.1094 3.08008 73.6387 3.5957 74.0137C4.10742 74.3887 4.82227 74.5762 5.74023 74.5762C7.65039 74.5762 8.60547 73.8594 8.60547 72.4258C8.60547 71.8242 8.45508 71.0957 8.1543 70.2402H9.67773C9.9707 70.9434 10.1172 71.7285 10.1172 72.5957C10.1172 73.8418 9.74023 74.7949 8.98633 75.4551C8.22852 76.1152 7.14258 76.4453 5.72852 76.4453C4.83789 76.4453 4.05859 76.2832 3.39062 75.959C2.71875 75.6348 2.20508 75.1699 1.84961 74.5645C1.49023 73.9551 1.31055 73.2422 1.31055 72.4258C1.31055 71.5938 1.51172 70.7578 1.91406 69.918L3.39062 70.5039C3.23828 70.8242 3.10547 71.1465 2.99219 71.4707C2.87891 71.7949 2.82227 72.1133 2.82227 72.4258ZM6.07422 68.9512C4.57031 68.9512 3.42969 68.666 2.65234 68.0957C1.87109 67.5215 1.37695 66.627 1.16992 65.4121C1.06836 64.8223 0.939453 63.9414 0.783203 62.7695L2.3418 62.5645C2.40039 63.0723 2.52539 63.9727 2.7168 65.2656C2.79492 65.7578 2.91211 66.125 3.06836 66.3672C3.22461 66.6094 3.44727 66.791 3.73633 66.9121C4.02539 67.0293 4.41016 67.1016 4.89062 67.1289V67.041C4.57031 66.834 4.32422 66.5605 4.15234 66.2207C3.98047 65.8809 3.89453 65.5156 3.89453 65.125C3.89453 64.3164 4.14258 63.6875 4.63867 63.2383C5.13086 62.7891 5.83789 62.5645 6.75977 62.5645C7.82227 62.5645 8.64844 62.8496 9.23828 63.4199C9.82422 63.9863 10.1172 64.7695 10.1172 65.7695C10.1172 66.7695 9.75977 67.5508 9.04492 68.1133C8.32617 68.6719 7.33594 68.9512 6.07422 68.9512ZM8.66992 65.6641C8.66992 64.8164 8.08594 64.3926 6.91797 64.3926C5.78125 64.3926 5.21289 64.7754 5.21289 65.541C5.21289 65.752 5.26172 65.9629 5.35937 66.1738C5.45703 66.3809 5.58594 66.5723 5.74609 66.748C5.90234 66.9199 6.06055 67.0469 6.2207 67.1289C7.01367 67.1289 7.62109 67.002 8.04297 66.748C8.46094 66.4941 8.66992 66.1328 8.66992 65.6641ZM7.51562 58.5508H6.05078V55.4043H7.51562V58.5508ZM1.43359 50.8457V48.1797C1.43359 46.9648 1.60742 46.084 1.95508 45.5371C2.29883 44.9863 2.84766 44.7109 3.60156 44.7109C4.11328 44.7109 4.5332 44.832 4.86133 45.0742C5.18945 45.3125 5.38672 45.6309 5.45312 46.0293H5.51172C5.63281 45.4863 5.85937 45.0957 6.19141 44.8574C6.52344 44.6152 6.96484 44.4941 7.51562 44.4941C8.29687 44.4941 8.90625 44.7773 9.34375 45.3438C9.78125 45.9062 10 46.6719 10 47.6406V50.8457H1.43359ZM4.82617 49.0293V47.9746C4.82617 47.4824 4.75 47.127 4.59766 46.9082C4.44531 46.6855 4.19336 46.5742 3.8418 46.5742C3.51367 46.5742 3.2793 46.6953 3.13867 46.9375C2.99414 47.1758 2.92187 47.5547 2.92187 48.0742V49.0293H4.82617ZM6.26758 49.0293H8.5V47.8457C8.5 47.3457 8.4043 46.9766 8.21289 46.7383C8.02148 46.5 7.72852 46.3809 7.33398 46.3809C6.62305 46.3809 6.26758 46.8887 6.26758 47.9043V49.0293ZM10.1172 40.2637C10.1172 42.3027 8.99805 43.3223 6.75977 43.3223C5.64648 43.3223 4.79687 43.0449 4.21094 42.4902C3.62109 41.9355 3.32617 41.1406 3.32617 40.1055C3.32617 39.3477 3.47461 38.668 3.77148 38.0664L5.1543 38.5938C5.04102 38.875 4.94922 39.1367 4.87891 39.3789C4.80469 39.6211 4.76758 39.8633 4.76758 40.1055C4.76758 41.0352 5.42773 41.5 6.74805 41.5C8.0293 41.5 8.66992 41.0352 8.66992 40.1055C8.66992 39.7617 8.625 39.4434 8.53516 39.1504C8.44141 38.8574 8.29687 38.5645 8.10156 38.2715H9.63086C9.81445 38.5605 9.94141 38.8535 10.0117 39.1504C10.082 39.4434 10.1172 39.8145 10.1172 40.2637ZM9.16211 37C8.83398 37 8.58594 36.9121 8.41797 36.7363C8.25 36.5605 8.16602 36.3047 8.16602 35.9688C8.16602 35.6445 8.25195 35.3945 8.42383 35.2188C8.5957 35.0391 8.8418 34.9492 9.16211 34.9492C9.4707 34.9492 9.71484 35.0391 9.89453 35.2188C10.0703 35.3984 10.1582 35.6484 10.1582 35.9688C10.1582 36.2969 10.0723 36.5508 9.90039 36.7305C9.72461 36.9102 9.47852 37 9.16211 37ZM4.32227 37C3.99414 37 3.74609 36.9121 3.57812 36.7363C3.41016 36.5605 3.32617 36.3047 3.32617 35.9688C3.32617 35.6445 3.41211 35.3945 3.58398 35.2188C3.75586 35.0391 4.00195 34.9492 4.32227 34.9492C4.63867 34.9492 4.88477 35.041 5.06055 35.2246C5.23242 35.4043 5.31836 35.6523 5.31836 35.9688C5.31836 36.2969 5.23242 36.5508 5.06055 36.7305C4.88867 36.9102 4.64258 37 4.32227 37ZM5.08984 24.7129C6.77734 24.7129 8.03711 25.0684 8.86914 25.7793C9.70117 26.4902 10.1172 27.5664 10.1172 29.0078C10.1172 29.5156 10.0898 29.9004 10.0352 30.1621H8.58203C8.66406 29.834 8.70508 29.4902 8.70508 29.1309C8.70508 28.5254 8.61719 28.0273 8.44141 27.6367C8.26172 27.2461 7.98242 26.9473 7.60352 26.7402C7.2207 26.5332 6.69531 26.4141 6.02734 26.3828V26.4531C6.39453 26.6797 6.65234 26.9414 6.80078 27.2383C6.94922 27.5352 7.02344 27.9062 7.02344 28.3516C7.02344 29.0977 6.78516 29.6855 6.30859 30.1152C5.82812 30.5449 5.16211 30.7598 4.31055 30.7598C3.39258 30.7598 2.66797 30.5 2.13672 29.9805C1.60156 29.457 1.33398 28.7461 1.33398 27.8477C1.33398 27.2148 1.48242 26.6621 1.7793 26.1895C2.07617 25.7129 2.50781 25.3477 3.07422 25.0938C3.63672 24.8398 4.30859 24.7129 5.08984 24.7129ZM2.78711 27.8125C2.78711 28.1875 2.91602 28.4805 3.17383 28.6914C3.43164 28.9023 3.80273 29.0078 4.28711 29.0078C4.70117 29.0078 5.0293 28.9121 5.27148 28.7207C5.51367 28.5293 5.63477 28.2383 5.63477 27.8477C5.63477 27.4805 5.51562 27.166 5.27734 26.9043C5.03516 26.6426 4.75781 26.5117 4.44531 26.5117C3.98047 26.5117 3.58789 26.6348 3.26758 26.8809C2.94727 27.123 2.78711 27.4336 2.78711 27.8125ZM7.51562 20.8164H6.05078V17.6699H7.51562V20.8164ZM10 7.7207V13.709H8.74023L6.56641 11.5586C5.91406 10.9219 5.46289 10.5059 5.21289 10.3105C4.95898 10.1152 4.72461 9.97461 4.50977 9.88867C4.29492 9.80273 4.07227 9.75977 3.8418 9.75977C3.49805 9.75977 3.24219 9.85547 3.07422 10.0469C2.90625 10.2344 2.82227 10.4863 2.82227 10.8027C2.82227 11.1348 2.89844 11.457 3.05078 11.7695C3.20312 12.082 3.41992 12.4082 3.70117 12.748L2.53516 13.7324C2.17578 13.3105 1.92187 12.9609 1.77344 12.6836C1.625 12.4062 1.51172 12.1035 1.43359 11.7754C1.35156 11.4473 1.31055 11.0801 1.31055 10.6738C1.31055 10.1387 1.4082 9.66602 1.60352 9.25586C1.79883 8.8457 2.07227 8.52734 2.42383 8.30078C2.77539 8.07422 3.17773 7.96094 3.63086 7.96094C4.02539 7.96094 4.39648 8.03125 4.74414 8.17188C5.08789 8.30859 5.44141 8.52344 5.80469 8.81641C6.16797 9.10547 6.68555 9.61719 7.35742 10.3516L8.39453 11.4531H8.47656V7.7207H10ZM8.22461 0.671875L8.22461 1.70312H10V3.47266H8.22461V7.12891H6.96484L1.43359 3.37305V1.70312H6.81836L6.81836 0.671875H8.22461ZM6.81836 3.47266H5.36523C5.12305 3.47266 4.77148 3.46289 4.31055 3.44336C3.84961 3.42383 3.58203 3.4082 3.50781 3.39648V3.44336C3.82812 3.58789 4.14062 3.76172 4.44531 3.96484L6.81836 5.53516V3.47266Z" fill="white"/>
</svg>
